<?xml version="1.0" encoding="UTF-8"?>
<!DOCTYPE svg PUBLIC "-//W3C//DTD SVG 1.1//EN" "http://www.w3.org/Graphics/SVG/1.1/DTD/svg11.dtd">
<svg xmlns="http://www.w3.org/2000/svg" version="1.1" width="1200px" height="228px" style="shape-rendering:geometricPrecision; text-rendering:geometricPrecision; image-rendering:optimizeQuality; fill-rule:evenodd; clip-rule:evenodd" xmlns:xlink="http://www.w3.org/1999/xlink">
<g><path style="opacity:0.915" fill="#170117" d="M 233.5,201.5 C 227.705,200.17 221.538,199.504 215,199.5C 208.462,199.504 202.295,200.17 196.5,201.5C 131.499,201.667 66.4991,201.5 1.5,201C 0.849641,194.068 0.182974,187.234 -0.5,180.5C -0.5,130.167 -0.5,79.8333 -0.5,29.5C 1.6467,25.189 4.98004,22.0223 9.5,20C 96.89,19.0079 184.223,19.3413 271.5,21C 276.084,23.5413 278.917,27.3746 280,32.5C 280.7,88.504 280.533,144.504 279.5,200.5C 264.202,201.453 248.869,201.786 233.5,201.5 Z M 126.5,39.5 C 128.857,39.3367 131.19,39.5034 133.5,40C 133.481,87.043 133.481,134.21 133.5,181.5C 122.167,181.5 110.833,181.5 99.5,181.5C 99.5,136.5 99.5,91.5 99.5,46.5C 108.49,43.6701 117.49,41.3368 126.5,39.5 Z M 147.5,39.5 C 158.87,40.7594 169.87,43.4261 180.5,47.5C 181.084,91.7618 181.417,136.428 181.5,181.5C 169.833,181.5 158.167,181.5 146.5,181.5C 146.5,162.167 146.5,142.833 146.5,123.5C 146.169,95.3284 146.502,67.3284 147.5,39.5 Z M 83.5,55.5 C 85.128,97.3221 85.7947,139.322 85.5,181.5C 74.5,181.5 63.5,181.5 52.5,181.5C 52.3334,149.832 52.5,118.165 53,86.5C 61.3336,74.3333 71.5003,64 83.5,55.5 Z M 193.5,55.5 C 199.008,57.997 204.008,61.3303 208.5,65.5C 215.568,73.0651 222.068,81.0651 228,89.5C 228.167,96.5 228.333,103.5 228.5,110.5C 227.59,133.616 227.59,156.783 228.5,180C 217.329,181.477 205.996,181.977 194.5,181.5C 193.652,139.802 193.319,97.8023 193.5,55.5 Z M 27.5,69.5 C 34.1032,68.8844 37.6032,71.8844 38,78.5C 38.5,112.832 38.6667,147.165 38.5,181.5C 33.5,181.5 28.5,181.5 23.5,181.5C 23.8091,147.984 23.4758,114.484 22.5,81C 22.4547,76.2467 24.1214,72.4134 27.5,69.5 Z M 245.5,69.5 C 249.803,68.7962 253.303,70.1295 256,73.5C 256.833,109.505 256.667,145.505 255.5,181.5C 250.597,181.306 245.763,181.306 241,181.5C 240.333,146.167 240.333,110.833 241,75.5C 242.332,73.34 243.832,71.34 245.5,69.5 Z"/></g>
<g><path style="opacity:0.64" fill="#2c0e2c" d="M 312.5,25.5 C 311.79,30.7317 311.123,36.0651 310.5,41.5C 308.983,42.7349 307.316,42.7349 305.5,41.5C 304.505,36.2079 304.172,30.8746 304.5,25.5C 303.167,25.5 301.833,25.5 300.5,25.5C 300.5,23.5 300.5,21.5 300.5,19.5C 307.863,19.1694 315.197,19.5027 322.5,20.5C 323.348,22.4086 323.682,24.4086 323.5,26.5C 324.873,26.6567 326.207,26.49 327.5,26C 326.167,24 326.167,22 327.5,20C 329.81,19.5034 332.143,19.3367 334.5,19.5C 334.831,26.8635 334.497,34.1968 333.5,41.5C 327.047,42.8682 325.047,40.3682 327.5,34C 326.207,33.51 324.873,33.3433 323.5,33.5C 323.752,36.3198 323.252,38.9865 322,41.5C 320.204,42.767 318.371,42.767 316.5,41.5C 315.505,36.2079 315.172,30.8746 315.5,25.5C 314.5,25.5 313.5,25.5 312.5,25.5 Z"/></g>
<g><path style="opacity:0.718" fill="#2c0d2c" d="M 335.5,19.5 C 340.5,19.5 345.5,19.5 350.5,19.5C 350.5,21.5 350.5,23.5 350.5,25.5C 347.753,25.1866 345.086,25.52 342.5,26.5C 343.981,26.3653 345.647,26.6986 347.5,27.5C 348.466,29.396 348.799,31.396 348.5,33.5C 346.396,33.2011 344.396,33.5344 342.5,34.5C 345.086,35.48 347.753,35.8134 350.5,35.5C 350.5,37.8333 350.5,40.1667 350.5,42.5C 345.767,42.7768 341.1,42.4435 336.5,41.5C 335.503,34.1968 335.169,26.8635 335.5,19.5 Z"/></g>
<g><path style="opacity:0.036" fill="#040104" d="M 312.5,25.5 C 313.113,31.2709 312.446,36.6042 310.5,41.5C 311.123,36.0651 311.79,30.7317 312.5,25.5 Z"/></g>
<g><path style="opacity:0.051" fill="#070007" d="M 147.5,39.5 C 146.502,67.3284 146.169,95.3284 146.5,123.5C 145.171,95.3305 145.171,66.9971 146.5,38.5C 147.107,38.6236 147.44,38.9569 147.5,39.5 Z"/></g>
<g><path style="opacity:0.92" fill="#170117" d="M 698.5,52.5 C 717.276,50.5714 734.943,53.9047 751.5,62.5C 751.656,65.0661 751.322,67.5661 750.5,70C 747.739,74.0316 745.406,78.1983 743.5,82.5C 729.289,74.4211 714.289,72.2544 698.5,76C 691.823,77.9274 689.823,82.094 692.5,88.5C 694.167,89.6667 695.833,90.8333 697.5,92C 709.807,96.3249 722.14,100.658 734.5,105C 740.437,108.217 745.937,112.051 751,116.5C 753.851,121.334 755.684,126.501 756.5,132C 753.753,150.082 743.419,161.082 725.5,165C 704.016,168.434 683.849,164.934 665,154.5C 665.555,150.817 666.555,147.15 668,143.5C 670.426,141.147 671.926,138.314 672.5,135C 673.833,134.333 675.167,134.333 676.5,135C 691.301,144.754 707.301,147.087 724.5,142C 734.295,134.955 733.628,128.955 722.5,124C 711.513,120.798 700.513,117.464 689.5,114C 683.425,111.418 677.925,107.918 673,103.5C 671.877,100.419 670.211,97.7526 668,95.5C 667.333,89.5 667.333,83.5 668,77.5C 674.365,64.5627 684.532,56.2294 698.5,52.5 Z"/></g>
<g><path style="opacity:0.922" fill="#170117" d="M 856.5,52.5 C 863.841,52.3337 871.174,52.5003 878.5,53C 888.618,56.059 897.951,60.7256 906.5,67C 908.152,68.47 909.152,70.3033 909.5,72.5C 907.034,76.4654 904.034,79.9654 900.5,83C 898.301,84.5457 896.134,86.0457 894,87.5C 876.633,74.3728 859.133,74.2061 841.5,87C 831.818,100.239 830.984,114.072 839,128.5C 848.942,139.033 861.108,142.866 875.5,140C 879.02,139.327 882.353,138.16 885.5,136.5C 885.422,133.021 885.755,129.521 886.5,126C 886,125.5 885.5,125 885,124.5C 882.868,125.78 880.702,125.78 878.5,124.5C 877.167,117.833 877.167,111.167 878.5,104.5C 888.453,103.359 898.453,103.192 908.5,104C 909.308,104.308 909.975,104.808 910.5,105.5C 911.648,118.788 911.815,132.121 911,145.5C 895.859,163.123 876.692,169.623 853.5,165C 825.148,156.933 809.814,138.266 807.5,109C 810.737,78.6344 827.07,59.8011 856.5,52.5 Z"/></g>
<g><path style="opacity:0.906" fill="#170117" d="M 413.5,53.5 C 441.074,53.1716 468.574,53.505 496,54.5C 496.795,61.2177 496.628,67.8843 495.5,74.5C 475.935,75.8254 456.435,75.8254 437,74.5C 436.5,82.4931 436.334,90.4931 436.5,98.5C 452.837,98.3334 469.17,98.5001 485.5,99C 486.479,105.744 486.812,112.578 486.5,119.5C 469.833,119.5 453.167,119.5 436.5,119.5C 436.5,127.5 436.5,135.5 436.5,143.5C 457.167,143.5 477.833,143.5 498.5,143.5C 498.813,150.755 498.48,157.921 497.5,165C 469.502,165.5 441.502,165.667 413.5,165.5C 413.5,128.167 413.5,90.8333 413.5,53.5 Z"/></g>
<g><path style="opacity:0.926" fill="#170117" d="M 505.5,53.5 C 514.085,53.1834 522.585,53.5168 531,54.5C 534.167,65.5062 537.167,76.5062 540,87.5C 540.561,89.7254 541.561,91.7254 543,93.5C 545.277,104.981 547.943,116.314 551,127.5C 554.604,117.083 557.271,106.417 559,95.5C 563.081,81.511 567.581,67.6777 572.5,54C 580.746,53.1851 588.912,53.3517 597,54.5C 603.131,77.6087 609.964,100.609 617.5,123.5C 619.813,118.459 621.313,113.126 622,107.5C 623.397,106.774 624.231,105.607 624.5,104C 629.204,87.286 633.538,70.4527 637.5,53.5C 646.167,53.5 654.833,53.5 663.5,53.5C 652.717,90.6835 641.217,127.684 629,164.5C 621.558,165.813 614.058,165.813 606.5,164.5C 606.192,163.692 605.692,163.025 605,162.5C 598.973,138.764 591.973,115.43 584,92.5C 576.666,116.845 569.499,141.179 562.5,165.5C 554.58,165.815 546.747,165.482 539,164.5C 532.913,145.577 527.246,126.577 522,107.5C 517.453,92.9611 512.453,78.6278 507,64.5C 505.892,60.9137 505.392,57.247 505.5,53.5 Z"/></g>
<g><path style="opacity:0.925" fill="#170117" d="M 957.5,53.5 C 965.86,53.1688 974.193,53.5021 982.5,54.5C 994.275,86.6067 1007.11,118.273 1021,149.5C 1022.64,154.891 1024.14,160.225 1025.5,165.5C 1017.49,165.666 1009.49,165.5 1001.5,165C 996.996,155.809 993.329,146.309 990.5,136.5C 976.5,136.5 962.5,136.5 948.5,136.5C 948.143,140.263 947.31,143.93 946,147.5C 943.679,153.478 941.179,159.311 938.5,165C 930.507,165.5 922.507,165.666 914.5,165.5C 923.618,137.247 934.452,109.581 947,82.5C 950.415,72.7509 953.915,63.0842 957.5,53.5 Z M 969.5,82.5 C 973.547,93.1355 977.547,103.969 981.5,115C 973.812,115.831 966.145,115.665 958.5,114.5C 962.962,104.113 966.629,93.4464 969.5,82.5 Z"/></g>
<g><path style="opacity:0.906" fill="#170117" d="M 1014.5,53.5 C 1043.74,53.1713 1072.91,53.5047 1102,54.5C 1102.67,60.8333 1102.67,67.1667 1102,73.5C 1101.5,74 1101,74.5 1100.5,75C 1090.26,75.8186 1080.09,75.652 1070,74.5C 1069.67,104.5 1069.33,134.5 1069,164.5C 1061.56,165.813 1054.06,165.813 1046.5,164.5C 1045.51,134.877 1045.17,105.211 1045.5,75.5C 1035.16,75.6665 1024.83,75.4998 1014.5,75C 1013.18,67.8335 1013.18,60.6669 1014.5,53.5 Z"/></g>
<g><path style="opacity:0.902" fill="#170117" d="M 1113.5,53.5 C 1140.84,53.3334 1168.17,53.5 1195.5,54C 1196.64,60.4184 1196.81,66.9184 1196,73.5C 1195.5,74 1195,74.5 1194.5,75C 1175.5,75.4999 1156.5,75.6666 1137.5,75.5C 1137.5,83.1667 1137.5,90.8333 1137.5,98.5C 1153.5,98.5 1169.5,98.5 1185.5,98.5C 1185.5,105.5 1185.5,112.5 1185.5,119.5C 1169.5,119.5 1153.5,119.5 1137.5,119.5C 1137.5,127.5 1137.5,135.5 1137.5,143.5C 1157.5,143.5 1177.5,143.5 1197.5,143.5C 1197.5,150.833 1197.5,158.167 1197.5,165.5C 1169.59,165.828 1141.76,165.495 1114,164.5C 1113.5,127.502 1113.33,90.5015 1113.5,53.5 Z"/></g>
<g><path style="opacity:0.912" fill="#170117" d="M 304.5,53.5 C 311.422,53.1878 318.256,53.5212 325,54.5C 340.406,76.9646 356.073,99.2979 372,121.5C 372.5,98.8358 372.667,76.1691 372.5,53.5C 380.167,53.5 387.833,53.5 395.5,53.5C 395.5,90.8333 395.5,128.167 395.5,165.5C 389.158,165.666 382.825,165.5 376.5,165C 359.677,143.331 343.511,121.164 328,98.5C 327.667,120.5 327.333,142.5 327,164.5C 319.587,165.481 312.087,165.814 304.5,165.5C 304.5,128.167 304.5,90.8333 304.5,53.5 Z"/></g>
<g><path style="opacity:0.025" fill="#040004" d="M 233.5,201.5 C 221.167,201.5 208.833,201.5 196.5,201.5C 202.295,200.17 208.462,199.504 215,199.5C 221.538,199.504 227.705,200.17 233.5,201.5 Z"/></g>
</svg>
