<?xml version="1.0" encoding="UTF-8"?>
<svg version="1.1" xmlns="https://www.w3.org/2000/svg" width="751" height="217">
<path d="M0 0 C247.83 0 495.66 0 751 0 C751 71.61 751 143.22 751 217 C503.17 217 255.34 217 0 217 C0 145.39 0 73.78 0 0 Z " fill="#FEFDFD" transform="translate(0,0)"/>
<path d="M0 0 C52.14 0 104.28 0 158 0 C158 6.27 158 12.54 158 19 C125.66 19 93.32 19 60 19 C60 28.57 60 38.14 60 48 C56.09372255 46.43748902 54.01886641 45.467499 50.890625 42.98828125 C50.13523438 42.39466797 49.37984375 41.80105469 48.6015625 41.18945312 C47.82554688 40.57005859 47.04953125 39.95066406 46.25 39.3125 C45.48945312 38.71244141 44.72890625 38.11238281 43.9453125 37.49414062 C42.40295769 36.27724882 40.86195043 35.05864721 39.32226562 33.83837891 C36.26290428 31.41649172 33.2017683 28.9988966 30.10083008 26.63037109 C28.7934164 25.61573907 27.50903406 24.56974008 26.2644043 23.47900391 C21.23148283 19.29624314 16.44241558 19.2267476 10.0625 19.1875 C9.09248047 19.16236328 8.12246094 19.13722656 7.12304688 19.11132812 C4.74912791 19.05285721 2.37452297 19.02346788 0 19 C0 12.73 0 6.46 0 0 Z " fill="#ED1B3E" transform="translate(17,129)"/>
<path d="M0 0 C52.14 0 104.28 0 158 0 C158 6.27 158 12.54 158 19 C105.86 19 53.72 19 0 19 C0 12.73 0 6.46 0 0 Z " fill="#ED1D40" transform="translate(17,102)"/>
<path d="M0 0 C52.14 0 104.28 0 158 0 C158 6.27 158 12.54 158 19 C105.86 19 53.72 19 0 19 C0 12.73 0 6.46 0 0 Z " fill="#ED1B3E" transform="translate(17,74)"/>
<path d="M0 0 C39.93 0 79.86 0 121 0 C121 5.94 121 11.88 121 18 C119.62328125 17.94457031 118.2465625 17.88914063 116.828125 17.83203125 C104.89500631 17.42108604 104.89500631 17.42108604 94.63525391 22.65185547 C92.31087104 25.01700323 90.15366305 27.47655061 88 30 C86.48621814 31.42602639 84.94788454 32.82694091 83.375 34.1875 C82.76398438 34.73792969 82.15296875 35.28835937 81.5234375 35.85546875 C80 37 80 37 78 37 C77.67 37.99 77.34 38.98 77 40 C75.26231598 41.56221756 73.46086782 43.05443479 71.625 44.5 C67.80607953 47.48160371 67.80607953 47.48160371 64.2734375 50.78125 C63 52 63 52 61 52 C61 41.11 61 30.22 61 19 C40.87 19 20.74 19 0 19 C0 12.73 0 6.46 0 0 Z " fill="#343795" transform="translate(100,157)"/>
<path d="M0 0 C15.18 0 30.36 0 46 0 C46 15.18 46 30.36 46 46 C30.82 46 15.64 46 0 46 C0 30.82 0 15.64 0 0 Z " fill="#333694" transform="translate(17,20)"/>
<path d="M0 0 C33.66 0 67.32 0 102 0 C102 6.27 102 12.54 102 19 C68.34 19 34.68 19 0 19 C0 12.73 0 6.46 0 0 Z " fill="#ED1D40" transform="translate(73,47)"/>
<path d="M0 0 C33.66 0 67.32 0 102 0 C102 6.27 102 12.54 102 19 C68.34 19 34.68 19 0 19 C0 12.73 0 6.46 0 0 Z " fill="#ED183C" transform="translate(73,20)"/>
<path d="M0 0 C3.63 0 7.26 0 11 0 C13.53339058 2.67323114 14.67269674 4.20057481 16.1875 7.375 C16.56712891 8.07367188 16.94675781 8.77234375 17.33789062 9.4921875 C20 14.49868614 20 14.49868614 20 17 C20.66 17 21.32 17 22 17 C22.26941406 16.30519531 22.53882813 15.61039063 22.81640625 14.89453125 C24.09700044 11.76278111 25.42531982 8.71555763 26.9375 5.6875 C27.44152344 4.61886719 27.94554687 3.55023438 28.46484375 2.44921875 C31 0 31 0 42 0 C42 13.53 42 27.06 42 41 C38.7 41 35.4 41 32 41 C31.67 34.07 31.34 27.14 31 20 C28.36 24.62 25.72 29.24 23 34 C21.68 34 20.36 34 19 34 C15.04 27.07 15.04 27.07 11 20 C10.67 26.93 10.34 33.86 10 41 C6.7 41 3.4 41 0 41 C0 27.47 0 13.94 0 0 Z " fill="#ED1D40" transform="translate(622,69)"/>
<path d="M0 0 C11 0 11 0 13.5 2.01171875 C13.995 2.89472656 14.49 3.77773437 15 4.6875 C15.515625 5.55761719 16.03125 6.42773438 16.5625 7.32421875 C17.036875 8.20722656 17.51125 9.09023437 18 10 C19.8651253 13.65393846 19.8651253 13.65393846 23 16 C23.268125 15.29488281 23.53625 14.58976562 23.8125 13.86328125 C25.05971575 10.85601434 26.4155721 8.03261452 28 5.1875 C28.7734375 3.72376953 28.7734375 3.72376953 29.5625 2.23046875 C32 0 32 0 42 0 C42 13.2 42 26.4 42 40 C39.03 40 36.06 40 33 40 C33 33.07 33 26.14 33 19 C32.34 19 31.68 19 31 19 C30.73445313 19.72574219 30.46890625 20.45148438 30.1953125 21.19921875 C28.99927052 24.00170928 27.59670893 26.30479352 25.875 28.8125 C25.33617187 29.60269531 24.79734375 30.39289063 24.2421875 31.20703125 C23.83226562 31.79871094 23.42234375 32.39039063 23 33 C21.203125 32.80859375 21.203125 32.80859375 19 32 C17.296875 29.78515625 17.296875 29.78515625 15.75 27.0625 C15.22921875 26.16660156 14.7084375 25.27070312 14.171875 24.34765625 C13 22 13 22 13 20 C12.34 20 11.68 20 11 20 C11 26.93 11 33.86 11 41 C7.37 41 3.74 41 0 41 C0 27.47 0 13.94 0 0 Z " fill="#ED2345" transform="translate(300,69)"/>
<path d="M0 0 C9.24 0 18.48 0 28 0 C31 12 31 12 31 15 C31.66 15 32.32 15 33 15 C33.20496094 14.00097656 33.40992188 13.00195312 33.62109375 11.97265625 C33.89050781 10.68230469 34.15992188 9.39195312 34.4375 8.0625 C34.70433594 6.77472656 34.97117187 5.48695313 35.24609375 4.16015625 C36 1 36 1 37 0 C39.67058851 -0.14115161 42.32432238 -0.04247107 45 0 C45.99 4.95 46.98 9.9 48 15 C48.66 15 49.32 15 50 15 C50.13277344 14.16855469 50.26554688 13.33710938 50.40234375 12.48046875 C50.57894531 11.39378906 50.75554688 10.30710938 50.9375 9.1875 C51.11152344 8.10855469 51.28554688 7.02960938 51.46484375 5.91796875 C52 3 52 3 53 0 C55.31 0 57.62 0 60 0 C59.26020745 6.06966162 57.92827871 11.93336056 56.5 17.875 C56.27441406 18.83664063 56.04882812 19.79828125 55.81640625 20.7890625 C55.48962891 22.15804687 55.48962891 22.15804687 55.15625 23.5546875 C54.95837891 24.38468262 54.76050781 25.21467773 54.55664062 26.06982422 C54 28 54 28 53 29 C50.32941149 29.14115161 47.67567762 29.04247107 45 29 C43.68 24.05 42.36 19.1 41 14 C39.31626595 17.3674681 38.31781585 20.15015766 37.375 23.75 C37.11460937 24.73484375 36.85421875 25.7196875 36.5859375 26.734375 C36.29589844 27.85585937 36.29589844 27.85585937 36 29 C33.36 29 30.72 29 28 29 C26.82898756 25.04293896 25.66392728 21.08415032 24.5 17.125 C24.16613281 15.99707031 23.83226562 14.86914062 23.48828125 13.70703125 C23.17246094 12.63066406 22.85664062 11.55429688 22.53125 10.4453125 C22.23798828 9.45031738 21.94472656 8.45532227 21.64257812 7.43017578 C21 5 21 5 21 3 C20.34 3 19.68 3 19 3 C19 4.32 19 5.64 19 7 C15.04 7 11.08 7 7 7 C7 8.32 7 9.64 7 11 C10.63 11 14.26 11 18 11 C18 13.31 18 15.62 18 18 C14.7 18 11.4 18 8 18 C8 19.32 8 20.64 8 22 C11.63 22 15.26 22 19 22 C19 24.31 19 26.62 19 29 C12.73 29 6.46 29 0 29 C0 19.43 0 9.86 0 0 Z " fill="#3C3F99" transform="translate(579,133)"/>
<path d="M0 0 C20 0 20 0 28 4 C29.9375 6.625 29.9375 6.625 31 9 C31.33 9.66 31.66 10.32 32 11 C32.53968163 15.58729382 32.23257912 18.09493294 29.4375 21.6875 C28.96183594 22.22761719 28.48617188 22.76773438 27.99609375 23.32421875 C26.78445096 24.96381688 26.78445096 24.96381688 27.28125 26.97265625 C27.5184375 27.64167969 27.755625 28.31070313 28 29 C28.350625 30.2375 28.70125 31.475 29.0625 32.75 C29.371875 33.8225 29.68125 34.895 30 36 C30.66 36 31.32 36 32 36 C32.495 38.475 32.495 38.475 33 41 C29.37 41 25.74 41 22 41 C21.67 39.68 21.34 38.36 21 37 C20.34 37 19.68 37 19 37 C18.4121875 35.2984375 18.4121875 35.2984375 17.8125 33.5625 C17.214375 32.386875 16.61625 31.21125 16 30 C14.35 29.67 12.7 29.34 11 29 C11 33.29 11 37.58 11 42 C7.37 42 3.74 42 0 42 C0 28.14 0 14.28 0 0 Z " fill="#EE2547" transform="translate(381,68)"/>
<path d="M0 0 C11 0 11 0 13.9375 2.88671875 C14.66650005 4.13022967 15.35382251 5.39900664 16 6.6875 C16.35449219 7.31333984 16.70898438 7.93917969 17.07421875 8.58398438 C17.73749586 9.76136288 18.38444322 10.9482308 19.0078125 12.1472168 C20.25581663 14.47770482 21.63987243 16.73312071 23 19 C23.33 12.73 23.66 6.46 24 0 C27.3 0 30.6 0 34 0 C34 13.53 34 27.06 34 41 C26 41 26 41 23.6796875 38.9453125 C22.78636719 37.54925781 22.78636719 37.54925781 21.875 36.125 C21.22273437 35.12855469 20.57046875 34.13210937 19.8984375 33.10546875 C19.27195312 32.08066406 18.64546875 31.05585937 18 30 C17.39414062 29.04738281 16.78828125 28.09476563 16.1640625 27.11328125 C12 20.41754695 12 20.41754695 12 18 C11.34 18 10.68 18 10 18 C10 25.59 10 33.18 10 41 C6.7 41 3.4 41 0 41 C0 27.47 0 13.94 0 0 Z " fill="#ED1D40" transform="translate(516,69)"/>
<path d="M0 0 C14 0 14 0 19 3 C20.3125 5.1875 20.3125 5.1875 21 7 C21.66 7 22.32 7 23 7 C23 9.64 23 12.28 23 15 C23.66 15 24.32 15 25 15 C25 10.05 25 5.1 25 0 C27.64 0 30.28 0 33 0 C33.33 7.26 33.66 14.52 34 22 C35.98 22 37.96 22 40 22 C41.58403524 20.41596476 41.21974935 18.7228362 41.31640625 16.52734375 C41.37924805 15.17866211 41.37924805 15.17866211 41.44335938 13.80273438 C41.48267578 12.85720703 41.52199219 11.91167969 41.5625 10.9375 C41.62727539 9.5134082 41.62727539 9.5134082 41.69335938 8.06054688 C41.79979276 5.70718647 41.90181008 3.35371646 42 1 C43.98 1 45.96 1 48 1 C48.14522934 4.91627663 48.23404757 8.83186153 48.3125 12.75 C48.35439453 13.86117187 48.39628906 14.97234375 48.43945312 16.1171875 C48.56339536 24.34695211 48.56339536 24.34695211 45.66796875 27.703125 C41.2300027 29.86037936 37.92011576 30.25895346 33 30 C30.75 29.1875 30.75 29.1875 29 28 C28.443125 27.62875 27.88625 27.2575 27.3125 26.875 C25.18317305 23.83310436 25.30019603 20.6623916 25 17 C23.02 17.99 23.02 17.99 21 19 C21.66 22.3 22.32 25.6 23 29 C19.6875 29.3125 19.6875 29.3125 16 29 C14.04421883 26.60259082 13 25.12413392 13 22 C11.35 21.67 9.7 21.34 8 21 C8 23.64 8 26.28 8 29 C5.36 29 2.72 29 0 29 C0 19.43 0 9.86 0 0 Z " fill="#373A96" transform="translate(350,133)"/>
<path d="M0 0 C3.63 0 7.26 0 11 0 C14.14901707 6.1930669 16.8433486 11.93865611 18.375 18.75 C19.98709198 25.38658172 22.20529408 31.30794112 26 37 C26 38.32 26 39.64 26 41 C22.37 41 18.74 41 15 41 C14.01 37.535 14.01 37.535 13 34 C8.05 34 3.1 34 -2 34 C-2.33 36.31 -2.66 38.62 -3 41 C-6.96 41 -10.92 41 -15 41 C-14.10072235 36.50361174 -12.81631169 33.1649906 -11 29 C-10.18393966 26.6123654 -9.39271432 24.21611565 -8.625 21.8125 C-6.2057913 14.36942609 -3.50503344 7.01006688 0 0 Z " fill="#ED2345" transform="translate(487,69)"/>
<path d="M0 0 C3.63 0 7.26 0 11 0 C13.77727236 5.95129791 16.03381425 11.89607669 18.0625 18.140625 C19.69417417 23.11723123 21.52808696 27.97709175 23.6875 32.75 C25 36 25 36 25 40 C21.7 40 18.4 40 15 40 C14.34 38.35 13.68 36.7 13 35 C8.05 34.67 3.1 34.34 -2 34 C-2.66 36.31 -3.32 38.62 -4 41 C-7.63 41 -11.26 41 -15 41 C-13.95036864 35.48943535 -12.59039505 30.78395691 -10.20703125 25.72265625 C-8.33771553 21.50610914 -6.78114299 17.17672637 -5.19433594 12.84741211 C-3.59308334 8.50077228 -1.85740375 4.24391954 0 0 Z " fill="#ED2244" transform="translate(272,69)"/>
<path d="M0 0 C8.58 0 17.16 0 26 0 C26 3.3 26 6.6 26 10 C20.72 10 15.44 10 10 10 C10 11.98 10 13.96 10 16 C14.62 16 19.24 16 24 16 C24 19.3 24 22.6 24 26 C19.38 26 14.76 26 10 26 C10 27.98 10 29.96 10 32 C15.28 32 20.56 32 26 32 C26 35.3 26 38.6 26 42 C17.42 42 8.84 42 0 42 C0 28.14 0 14.28 0 0 Z " fill="#EE2546" transform="translate(672,68)"/>
<path d="M0 0 C1.546875 0.86625 1.546875 0.86625 3.125 1.75 C4.23875 2.36875 5.3525 2.9875 6.5 3.625 C9.125 5.75 9.125 5.75 10 8.5 C10.04125 9.2425 10.0825 9.985 10.125 10.75 C4.77560241 13.78943045 4.77560241 13.78943045 2.0625 13.625 C0.125 12.75 0.125 12.75 -2.0625 11.125 C-6.15647998 9.12349868 -9.53810497 9.58486402 -13.875 10.75 C-16.58607713 12.12716666 -16.58607713 12.12716666 -17.875 14.75 C-18.46298414 19.23337906 -18.28612313 22.54726571 -16.4375 26.6875 C-13.8000398 29.83958658 -13.3022195 30.31393341 -9.5 31 C-5.92013265 31.1645916 -4.2127604 30.65074479 -1.5625 28.25 C-0.2321875 27.0125 -0.2321875 27.0125 1.125 25.75 C4.58998453 25.75 7.2554553 27.91667978 10.125 29.75 C9.02084678 33.92124551 7.01565366 36.87103715 3.71875 39.57421875 C0.00947464 41.25568243 -3.40170056 41.34183141 -7.4375 41.375 C-8.16976807 41.38571533 -8.90203613 41.39643066 -9.65649414 41.4074707 C-14.79917307 41.27435513 -17.78040281 40.06961382 -21.875 36.75 C-25.875 32.32894737 -25.875 32.32894737 -25.875 29.75 C-26.535 29.75 -27.195 29.75 -27.875 29.75 C-29.92585277 23.59744168 -30.19666335 16.06831906 -27.78125 10.00390625 C-26.30886128 7.68176127 -24.76868658 5.74069057 -22.875 3.75 C-22.36839844 3.2034375 -21.86179687 2.656875 -21.33984375 2.09375 C-15.60586939 -2.97807007 -6.87053256 -2.74821302 0 0 Z " fill="#ED2446" transform="translate(461.875,69.25)"/>
<path d="M0 0 C4.48415738 3.64989554 4.48415738 3.64989554 5.6875 5.1875 C5.6875 6.1775 5.6875 7.1675 5.6875 8.1875 C0.54464286 12.1875 0.54464286 12.1875 -3.3125 12.1875 C-3.9725 11.1975 -4.6325 10.2075 -5.3125 9.1875 C-8.39615871 8.9372843 -8.39615871 8.9372843 -11.3125 9.1875 C-11.3125 10.1775 -11.3125 11.1675 -11.3125 12.1875 C-10.50425781 12.50203125 -9.69601562 12.8165625 -8.86328125 13.140625 C-7.79464844 13.56859375 -6.72601562 13.9965625 -5.625 14.4375 C-4.56925781 14.85515625 -3.51351562 15.2728125 -2.42578125 15.703125 C1.60671325 17.62576981 4.81130552 19.60200522 7 23.5625 C7.84540564 26.79041245 8.21993414 28.85978662 7.6875 32.1875 C5.36891178 36.00917299 2.81476661 38.6238667 -1.1875 40.625 C-8.77501103 41.99075198 -13.87909584 41.49611013 -20.3125 37.1875 C-22.375 35.1875 -22.375 35.1875 -23.3125 33.1875 C-23.3125 31.125 -23.3125 31.125 -22.3125 29.1875 C-20 27.3125 -20 27.3125 -17.3125 26.1875 C-15 27 -15 27 -13.3125 28.1875 C-13.3125 28.8475 -13.3125 29.5075 -13.3125 30.1875 C-10.3425 30.1875 -7.3725 30.1875 -4.3125 30.1875 C-4.3125 28.8675 -4.3125 27.5475 -4.3125 26.1875 C-5.27671875 25.81238281 -6.2409375 25.43726562 -7.234375 25.05078125 C-8.51072304 24.53461109 -9.78674796 24.01764145 -11.0625 23.5 C-11.69671875 23.25572266 -12.3309375 23.01144531 -12.984375 22.75976562 C-17.3109527 20.97955918 -19.85409556 19.18164846 -22.3125 15.1875 C-23.25219796 11.46111154 -23.12228624 7.81396427 -21.39453125 4.34375 C-16.2443938 -2.45643149 -7.26529923 -3.97535241 0 0 Z " fill="#ED2345" transform="translate(724.3125,69.8125)"/>
<path d="M0 0 C8.25 0 16.5 0 25 0 C25 2.64 25 5.28 25 8 C19.72 8 14.44 8 9 8 C9 10.31 9 12.62 9 15 C13.62 15 18.24 15 23 15 C23 17.97 23 20.94 23 24 C18.38 24 13.76 24 9 24 C9 26.64 9 29.28 9 32 C14.28 32 19.56 32 25 32 C25 34.64 25 37.28 25 40 C16.75 40 8.5 40 0 40 C0 26.8 0 13.6 0 0 Z " fill="#ED193C" transform="translate(351,69)"/>
<path d="M0 0 C11.22 0 22.44 0 34 0 C34 6.27 34 12.54 34 19 C22.78 19 11.56 19 0 19 C0 12.73 0 6.46 0 0 Z " fill="#2F3292" transform="translate(187,129)"/>
<path d="M0 0 C11.22 0 22.44 0 34 0 C34 6.27 34 12.54 34 19 C22.78 19 11.56 19 0 19 C0 12.73 0 6.46 0 0 Z " fill="#2F3292" transform="translate(187,102)"/>
<path d="M0 0 C11.22 0 22.44 0 34 0 C34 6.27 34 12.54 34 19 C22.78 19 11.56 19 0 19 C0 12.73 0 6.46 0 0 Z " fill="#373A96" transform="translate(187,74)"/>
<path d="M0 0 C11.22 0 22.44 0 34 0 C34 6.27 34 12.54 34 19 C22.78 19 11.56 19 0 19 C0 12.73 0 6.46 0 0 Z " fill="#313493" transform="translate(187,47)"/>
<path d="M0 0 C10.23 0 20.46 0 31 0 C31 3.3 31 6.6 31 10 C27.7 10 24.4 10 21 10 C21 20.56 21 31.12 21 42 C17.7 42 14.4 42 11 42 C11 31.44 11 20.88 11 10 C7.37 10 3.74 10 0 10 C0 6.7 0 3.4 0 0 Z " fill="#EE2647" transform="translate(569,68)"/>
<path d="M0 0 C14 0 14 0 17.8125 1.4375 C20.52977955 4.6205989 20.74945616 6.78226198 20.89453125 10.87890625 C20.91424481 13.19060722 20.91424481 13.19060722 22 16 C22.38887761 20.19987818 22.45908323 22.29607238 20.125 25.875 C17.20022672 28.79977328 16.54355241 28.98563551 12.3046875 29.09765625 C10.82808958 29.09193586 9.35151736 29.07895104 7.875 29.0625 C5.27625 29.041875 2.6775 29.02125 0 29 C0 19.43 0 9.86 0 0 Z " fill="#3A3D98" transform="translate(473,133)"/>
<path d="M0 0 C2.31 0 4.62 0 7 0 C9.43359375 2.625 9.43359375 2.625 11.4375 6 C12.11683594 7.11375 12.79617188 8.2275 13.49609375 9.375 C13.99238281 10.24125 14.48867188 11.1075 15 12 C15.33 8.04 15.66 4.08 16 0 C18.64 0 21.28 0 24 0 C24 9.57 24 19.14 24 29 C21.69 29 19.38 29 17 29 C15.109375 26.84765625 15.109375 26.84765625 13.75 24.0625 C11.91432115 19.90060083 11.91432115 19.90060083 8 18 C8 21.63 8 25.26 8 29 C5.36 29 2.72 29 0 29 C0 19.43 0 9.86 0 0 Z " fill="#3F429B" transform="translate(551,133)"/>
<path d="M0 0 C33.66 0 67.32 0 102 0 C102 6.27 102 12.54 102 19 C68.34 19 34.68 19 0 19 C0 18.67 0 18.34 0 18 C33.33 18 66.66 18 101 18 C100.67 13.71 100.34 9.42 100 5 C98.55367187 5.24363281 98.55367187 5.24363281 97.078125 5.4921875 C92.6307232 6.12593106 88.2352713 6.14705871 83.75 6.125 C82.94820313 6.12886719 82.14640625 6.13273437 81.3203125 6.13671875 C77.96570065 6.13110903 75.20352683 6.06784228 72 5 C69.87411656 5.13329375 69.87411656 5.13329375 67.625 5.5 C64.09395463 5.94919901 61.48135876 5.80339048 58 5 C56.62521831 4.97549894 55.24981661 4.97754383 53.875 5 C50 5 50 5 47 4 C46.401875 4.350625 45.80375 4.70125 45.1875 5.0625 C41.9956214 6.43044797 40.19711258 5.15096053 37 4 C35.00039988 3.960008 32.99952758 3.95653201 31 4 C29.66158328 3.68770276 28.32860925 3.35169068 27 3 C21.00327221 2.14523256 15.04816385 1.72086252 9 1.4375 C8.12988281 1.39431641 7.25976562 1.35113281 6.36328125 1.30664062 C4.24231781 1.20175782 2.12117567 1.10049925 0 1 C0 0.67 0 0.34 0 0 Z " fill="#EF3756" transform="translate(73,20)"/>
<path d="M0 0 C2.97 0 5.94 0 9 0 C9.25394531 0.73605469 9.50789063 1.47210938 9.76953125 2.23046875 C10.11371094 3.20628906 10.45789063 4.18210938 10.8125 5.1875 C11.14894531 6.15042969 11.48539062 7.11335937 11.83203125 8.10546875 C12.98129872 10.95365336 14.40167816 13.38535394 16 16 C17.54870353 20.48308917 18.23113704 24.2616906 18 29 C15.69 29 13.38 29 11 29 C10.505 26.525 10.505 26.525 10 24 C6.37 24 2.74 24 -1 24 C-1.33 25.65 -1.66 27.3 -2 29 C-4.31 29 -6.62 29 -9 29 C-8.45337546 23.7632019 -7.14604701 19.34662014 -5.0625 14.5 C-3.03931248 9.72508054 -1.33602715 5.00848827 0 0 Z " fill="#43469D" transform="translate(451,133)"/>
<path d="M0 0 C6.6 0 13.2 0 20 0 C20 2.31 20 4.62 20 7 C16.04 7 12.08 7 8 7 C8 8.32 8 9.64 8 11 C11.3 11 14.6 11 18 11 C18 13.31 18 15.62 18 18 C14.7 18 11.4 18 8 18 C8 19.32 8 20.64 8 22 C11.63 22 15.26 22 19 22 C19 24.31 19 26.62 19 29 C12.73 29 6.46 29 0 29 C0 19.43 0 9.86 0 0 Z " fill="#4D4FA2" transform="translate(518,133)"/>
<path d="M0 0 C3.3 0 6.6 0 10 0 C10 13.53 10 27.06 10 41 C6.7 41 3.4 41 0 41 C0 27.47 0 13.94 0 0 Z " fill="#ED2244" transform="translate(605,69)"/>
<path d="M0 0 C3.4375 2 3.4375 2 6 4 C5.67 5.32 5.34 6.64 5 8 C1.30458414 8.95024979 -1.30458414 8.95024979 -5 8 C-4.67 8.99 -4.34 9.98 -4 11 C-2.26363174 11.87527214 -2.26363174 11.87527214 -0.1875 12.4375 C3.4289954 13.71009084 5.84020143 14.67031054 8 18 C8.54992503 20.77826709 8.72950965 23.25361074 8 26 C5.81155608 28.97565396 4.60348018 29.88824441 0.94140625 30.56640625 C-8.03416265 30.55602987 -8.03416265 30.55602987 -10.9609375 28.87109375 C-12.3125 27.5 -12.3125 27.5 -14 25 C-13.3125 23.0625 -13.3125 23.0625 -12 21 C-9.375 20.25 -9.375 20.25 -7 20 C-6.67 20.66 -6.34 21.32 -6 22 C-4.02 22 -2.04 22 0 22 C0 21.34 0 20.68 0 20 C-0.61488281 19.74605469 -1.22976563 19.49210937 -1.86328125 19.23046875 C-2.67152344 18.88628906 -3.47976563 18.54210937 -4.3125 18.1875 C-5.11300781 17.85105469 -5.91351563 17.51460937 -6.73828125 17.16796875 C-9.01807776 15.99066451 -10.42411344 15.01613424 -12 13 C-12.55307674 8.02230936 -12.05588788 4.99616107 -9 1 C-5.89046621 -0.5547669 -3.43733239 -0.28644437 0 0 Z " fill="#45489E" transform="translate(415,133)"/>
<path d="M0 0 C34.32 0 68.64 0 104 0 C104 0.33 104 0.66 104 1 C70.34 1 36.68 1 2 1 C2 9.58 2 18.16 2 27 C35.66 27 69.32 27 104 27 C104 27.33 104 27.66 104 28 C70.34 28 36.68 28 2 28 C2 34.27 2 40.54 2 47 C35.66 47 69.32 47 104 47 C104 47.33 104 47.66 104 48 C69.68 48 35.36 48 0 48 C0 32.16 0 16.32 0 0 Z " fill="#F6C6CE" transform="translate(71,19)"/>
<path d="M0 0 C3.3 0 6.6 0 10 0 C10 13.2 10 26.4 10 40 C6.7 40 3.4 40 0 40 C0 26.8 0 13.6 0 0 Z " fill="#ED2244" transform="translate(418,69)"/>
<path d="M0 0 C2.5625 2.0625 2.5625 2.0625 4 4 C3.67 4.99 3.34 5.98 3 7 C0.4375 8.1875 0.4375 8.1875 -2 9 C-2.33 8.34 -2.66 7.68 -3 7 C-5.52733235 6.34444881 -5.52733235 6.34444881 -8 6 C-7.31726806 9.13810307 -7.31726806 9.13810307 -4.78515625 10.31640625 C-3.88667969 10.72761719 -2.98820313 11.13882813 -2.0625 11.5625 C2.81550802 13.81550802 2.81550802 13.81550802 5 16 C5.1953125 18.1640625 5.1953125 18.1640625 5.125 20.625 C5.10695313 21.44226563 5.08890625 22.25953125 5.0703125 23.1015625 C5.04710937 23.72804687 5.02390625 24.35453125 5 25 C0.10758872 28.1950441 -2.97708824 29.78074782 -9 29 C-11.87305972 27.59539303 -13.74510999 26.25489001 -16 24 C-16 23.01 -16 22.02 -16 21 C-14.02 20.34 -12.04 19.68 -10 19 C-9.67 19.66 -9.34 20.32 -9 21 C-6.67843403 21.40729228 -4.3431213 21.74438677 -2 22 C-2.44033992 20.01979579 -2.44033992 20.01979579 -4 18 C-5.83864518 17.16064095 -5.83864518 17.16064095 -7.9375 16.5 C-10.51233387 15.62147229 -11.92484593 15.06575981 -14 13.25 C-15.46163259 9.96132668 -15.44415532 7.55324253 -15 4 C-10.62300426 -1.5441946 -6.54677334 -1.55820182 0 0 Z " fill="#3F419A" transform="translate(658,134)"/>
<path d="M0 0 C1.98 0 3.96 0 6 0 C6.02505615 0.60062256 6.0501123 1.20124512 6.07592773 1.82006836 C6.1915528 4.52611437 6.31442936 7.23178283 6.4375 9.9375 C6.47681641 10.88302734 6.51613281 11.82855469 6.55664062 12.80273438 C6.59853516 13.70185547 6.64042969 14.60097656 6.68359375 15.52734375 C6.72025146 16.35999756 6.75690918 17.19265137 6.79467773 18.05053711 C6.79367103 20.00338858 6.79367103 20.00338858 8 21 C11 21.16666667 11 21.16666667 14 21 C15.58403524 19.41596476 15.21974935 17.7228362 15.31640625 15.52734375 C15.35830078 14.62822266 15.40019531 13.72910156 15.44335938 12.80273438 C15.48267578 11.85720703 15.52199219 10.91167969 15.5625 9.9375 C15.60568359 8.98810547 15.64886719 8.03871094 15.69335938 7.06054688 C15.79979276 4.70718647 15.90181008 2.35371646 16 0 C17.98 0 19.96 0 22 0 C22.14522934 3.91627663 22.23404757 7.83186153 22.3125 11.75 C22.35439453 12.86117187 22.39628906 13.97234375 22.43945312 15.1171875 C22.56339536 23.34695211 22.56339536 23.34695211 19.66796875 26.703125 C15.2300027 28.86037936 11.92011576 29.25895346 7 29 C4.00436053 27.9182413 1.98119059 26.49202261 0 24 C-0.34057617 21.45629883 -0.34057617 21.45629883 -0.29296875 18.45703125 C-0.28330078 17.38388672 -0.27363281 16.31074219 -0.26367188 15.20507812 C-0.23853516 14.08552734 -0.21339844 12.96597656 -0.1875 11.8125 C-0.16719727 10.11577148 -0.16719727 10.11577148 -0.14648438 8.38476562 C-0.11109958 5.58936683 -0.06172948 2.79492108 0 0 Z " fill="#3E419A" transform="translate(376,134)"/>
<path d="M0 0 C9.24 0 18.48 0 28 0 C28 3.3 28 6.6 28 10 C22.72 10 17.44 10 12 10 C12 11.65 12 13.3 12 15 C13.39025391 14.98259766 13.39025391 14.98259766 14.80859375 14.96484375 C16.00613281 14.95582031 17.20367187 14.94679688 18.4375 14.9375 C19.63246094 14.92589844 20.82742188 14.91429688 22.05859375 14.90234375 C25 15 25 15 26 16 C26.14257189 19.33618231 26.04228157 22.65975606 26 26 C21.38 26 16.76 26 12 26 C12 27.98 12 29.96 12 32 C17.28 32 22.56 32 28 32 C28 35.3 28 38.6 28 42 C18.76 42 9.52 42 0 42 C0 30.78 0 19.56 0 8 C-1.65 8 -3.3 8 -5 8 C-5 19.22 -5 30.44 -5 42 C-8.96 42 -12.92 42 -17 42 C-17.33 34.74 -17.66 27.48 -18 20 C-17.34 20 -16.68 20 -16 20 C-16 26.93 -16 33.86 -16 41 C-13.03 41 -10.06 41 -7 41 C-7 27.8 -7 14.6 -7 1 C-6.34 1 -5.68 1 -5 1 C-5 2.32 -5 3.64 -5 5 C-3.35 5 -1.7 5 0 5 C0 3.35 0 1.7 0 0 Z M2 1 C2 14.2 2 27.4 2 41 C10.25 41 18.5 41 27 41 C27 38.36 27 35.72 27 33 C21.72 33 16.44 33 11 33 C11 30.36 11 27.72 11 25 C15.62 25 20.24 25 25 25 C25 22.03 25 19.06 25 16 C20.38 16 15.76 16 11 16 C11 13.69 11 11.38 11 9 C16.28 9 21.56 9 27 9 C27 6.36 27 3.72 27 1 C18.75 1 10.5 1 2 1 Z " fill="#F48093" transform="translate(349,68)"/>
<path d="M0 0 C5.61 0 11.22 0 17 0 C17 1.98 17 3.96 17 6 C13.37 6 9.74 6 6 6 C6 7.65 6 9.3 6 11 C9.3 11 12.6 11 16 11 C16 12.65 16 14.3 16 16 C12.7 16 9.4 16 6 16 C6 17.98 6 19.96 6 22 C9.63 22 13.26 22 17 22 C17 23.65 17 25.3 17 27 C11.39 27 5.78 27 0 27 C0 18.09 0 9.18 0 0 Z " fill="#2F3292" transform="translate(580,134)"/>
<path d="M0 0 C2.64 0 5.28 0 8 0 C8 7.26 8 14.52 8 22 C11.63 22 15.26 22 19 22 C19 24.31 19 26.62 19 29 C12.73 29 6.46 29 0 29 C0 19.43 0 9.86 0 0 Z " fill="#6C6EB2" transform="translate(497,133)"/>
<path d="M0 0 C0.33 0 0.66 0 1 0 C1 6.27 1 12.54 1 19 C12.22 19 23.44 19 35 19 C35 12.73 35 6.46 35 0 C35.33 0 35.66 0 36 0 C36 15.51 36 31.02 36 47 C28.74 47 21.48 47 14 47 C14 46.67 14 46.34 14 46 C20.93 46 27.86 46 35 46 C35 40.06 35 34.12 35 28 C-4.93 28 -44.86 28 -86 28 C-86 27.67 -86 27.34 -86 27 C-46.07 27 -6.14 27 35 27 C34.67 25.35 34.34 23.7 34 22 C32.56164795 21.96241577 32.56164795 21.96241577 31.09423828 21.92407227 C27.54201523 21.8300138 23.98998844 21.72978942 20.43798828 21.62768555 C18.89962347 21.58433074 17.36121037 21.54265605 15.82275391 21.50268555 C13.6134586 21.44499602 11.40440652 21.38129821 9.1953125 21.31640625 C8.50567413 21.29969376 7.81603577 21.28298126 7.10549927 21.26576233 C2.22774341 21.11387171 2.22774341 21.11387171 0 20 C0 13.4 0 6.8 0 0 Z " fill="#BFBFDA" transform="translate(186,129)"/>
<path d="M0 0 C6.6 0 13.2 0 20 0 C20 1.98 20 3.96 20 6 C17.69 6 15.38 6 13 6 C13 13.26 13 20.52 13 28 C10.69 28 8.38 28 6 28 C6 20.74 6 13.48 6 6 C4.02 6 2.04 6 0 6 C0 4.02 0 2.04 0 0 Z " fill="#3D4099" transform="translate(327,134)"/>
<path d="M0 0 C6.93 0 13.86 0 21 0 C21 1.98 21 3.96 21 6 C18.36 6 15.72 6 13 6 C13 13.26 13 20.52 13 28 C11.02 28 9.04 28 7 28 C7 20.74 7 13.48 7 6 C4.69 6 2.38 6 0 6 C0 4.02 0 2.04 0 0 Z " fill="#343795" transform="translate(424,134)"/>
<path d="M0 0 C23.43 0 46.86 0 71 0 C71 6.27 71 12.54 71 19 C37.34 19 3.68 19 -31 19 C-31 18.67 -31 18.34 -31 18 C2.33 18 35.66 18 70 18 C69.67 13.71 69.34 9.42 69 5 C61.30859762 2.96201408 53.93060295 2.57667887 45.99609375 2.3671875 C44.67706558 2.32562531 43.35803741 2.28406311 41.9990387 2.24124146 C38.52231966 2.13178679 35.04538431 2.03254175 31.56829834 1.93554688 C28.00823117 1.83438717 24.44847122 1.72339934 20.88867188 1.61328125 C13.92604838 1.39932907 6.96314632 1.19618006 0 1 C0 0.67 0 0.34 0 0 Z " fill="#F37187" transform="translate(104,20)"/>
<path d="M0 0 C11.22 0 22.44 0 34 0 C34 6.27 34 12.54 34 19 C22.78 19 11.56 19 0 19 C0 12.73 0 6.46 0 0 Z M1 2 C1 7.28 1 12.56 1 18 C11.56 18 22.12 18 33 18 C33 14.7 33 11.4 33 8 C32.34 7.34 31.68 6.68 31 6 C30.01 6 29.02 6 28 6 C24.78277055 5.56601476 21.57102096 5.10918097 18.36132812 4.62304688 C14.57802585 3.95622904 14.57802585 3.95622904 11 5 C10.649375 4.505 10.29875 4.01 9.9375 3.5 C7.48587017 1.28579794 7.48587017 1.28579794 1 2 Z " fill="#6568AE" transform="translate(187,47)"/>
<path d="M0 0 C11.55 0 23.1 0 35 0 C35.59696995 5.96969953 36.12475451 11.37912806 36.11352539 17.28564453 C36.11367142 17.94059402 36.11381744 18.59554352 36.1139679 19.27033997 C36.11328261 21.39120032 36.10555669 23.51196789 36.09765625 25.6328125 C36.09578713 27.12067619 36.09436556 28.6085405 36.09336853 30.09640503 C36.08958222 33.97938793 36.07978594 37.86233239 36.06866455 41.74530029 C36.05836607 45.72081991 36.05385298 49.69634584 36.04882812 53.671875 C36.0381595 61.44793404 36.0211308 69.2239616 36 77 C35.01 77.495 35.01 77.495 34 78 C34 77.34 34 76.68 34 76 C30.58268208 76.1100917 27.16644426 76.24067061 23.75 76.375 C22.78191406 76.4059375 21.81382812 76.436875 20.81640625 76.46875 C19.88183594 76.50742188 18.94726562 76.54609375 17.984375 76.5859375 C17.12553711 76.6173584 16.26669922 76.6487793 15.38183594 76.68115234 C12.8717972 77.01716204 11.18067672 77.74191728 9 79 C9.99 77.68 10.98 76.36 12 75 C19.59 75 27.18 75 35 75 C35 59.49 35 43.98 35 28 C34.34 27.67 33.68 27.34 33 27 C33.33 25.02 33.66 23.04 34 21 C22.78 21 11.56 21 0 21 C0 20.67 0 20.34 0 20 C11.22 20 22.44 20 34 20 C34 13.73 34 7.46 34 1 C22.78 1 11.56 1 0 1 C0 0.67 0 0.34 0 0 Z " fill="#E0E0EC" transform="translate(187,101)"/>
<path d="M0 0 C2.64 0 5.28 0 8 0 C8.66 1.98 9.32 3.96 10 6 C11.32 5.01 12.64 4.02 14 3 C13.67 3.99 13.34 4.98 13 6 C12.46760949 10.57511569 12.46760949 10.57511569 14.22265625 14.58203125 C16.27649069 16.22058488 18.26759613 17.17043895 20.6875 18.1875 C21.49574219 18.53167969 22.30398438 18.87585938 23.13671875 19.23046875 C24.05904297 19.61138672 24.05904297 19.61138672 25 20 C24.67 20.99 24.34 21.98 24 23 C22.02 23 20.04 23 18 23 C17.67 22.01 17.34 21.02 17 20 C12.67628107 22.02633069 12.67628107 22.02633069 9 25 C8.34 24.67 7.68 24.34 7 24 C7 16.41 7 8.82 7 1 C5.02 1 3.04 1 1 1 C1 7.6 1 14.2 1 21 C0.67 21 0.34 21 0 21 C0 14.07 0 7.14 0 0 Z " fill="#D2D3E7" transform="translate(391,133)"/>
<path d="M0 0 C1.98 0 3.96 0 6 0 C6.02505615 0.59014893 6.0501123 1.18029785 6.07592773 1.78833008 C6.19200052 4.46326814 6.31467572 7.1378638 6.4375 9.8125 C6.47681641 10.74126953 6.51613281 11.67003906 6.55664062 12.62695312 C6.59853516 13.51962891 6.64042969 14.41230469 6.68359375 15.33203125 C6.72025146 16.15421143 6.75690918 16.9763916 6.79467773 17.82348633 C6.93427772 20.17905178 6.93427772 20.17905178 8 23 C9.65 23 11.3 23 13 23 C13 23.99 13 24.98 13 26 C5.77982408 27.34613449 5.77982408 27.34613449 2.390625 25.84179688 C0 24 0 24 -0.56762695 21.45629883 C-0.54144287 20.46654053 -0.51525879 19.47678223 -0.48828125 18.45703125 C-0.47216797 17.38388672 -0.45605469 16.31074219 -0.43945312 15.20507812 C-0.39755859 14.08552734 -0.35566406 12.96597656 -0.3125 11.8125 C-0.28994141 10.68134766 -0.26738281 9.55019531 -0.24414062 8.38476562 C-0.18514811 5.58852024 -0.1028824 2.79491903 0 0 Z " fill="#363996" transform="translate(376,134)"/>
<path d="M0 0 C2.12508244 3.18762365 2.5020163 5.26512223 3 9 C5.64 9 8.28 9 11 9 C10.360625 9.495 9.72125 9.99 9.0625 10.5 C6.18484731 13.98806387 6.29769264 16.53461041 6 21 C5.1646875 20.4740625 5.1646875 20.4740625 4.3125 19.9375 C1.36840892 18.74394956 -0.00185923 19.02560425 -3 20 C-4.32 20.99 -5.64 21.98 -7 23 C-6.34 19.7 -5.68 16.4 -5 13 C-6.32 12.67 -7.64 12.34 -9 12 C-9.33 11.01 -9.66 10.02 -10 9 C-6.535 8.505 -6.535 8.505 -3 8 C-2.01 5.36 -1.02 2.72 0 0 Z " fill="#F5F5F9" transform="translate(40,30)"/>
<path d="M0 0 C0.33 0 0.66 0 1 0 C1 13.86 1 27.72 1 42 C0.67 42 0.34 42 0 42 C0 30.78 0 19.56 0 8 C-1.65 8 -3.3 8 -5 8 C-5 19.22 -5 30.44 -5 42 C-8.96 42 -12.92 42 -17 42 C-17.33 34.74 -17.66 27.48 -18 20 C-17.34 20 -16.68 20 -16 20 C-16 26.93 -16 33.86 -16 41 C-13.03 41 -10.06 41 -7 41 C-7 27.8 -7 14.6 -7 1 C-6.34 1 -5.68 1 -5 1 C-5 2.32 -5 3.64 -5 5 C-3.35 5 -1.7 5 0 5 C0 3.35 0 1.7 0 0 Z " fill="#F8BEC8" transform="translate(349,68)"/>
<path d="M0 0 C4.62 0 9.24 0 14 0 C14 0.33 14 0.66 14 1 C9.71 1 5.42 1 1 1 C1 8.92 1 16.84 1 25 C2.32 24.34 3.64 23.68 5 23 C5.81584568 19.94091587 5.81584568 19.94091587 6 17 C8.64 17 11.28 17 14 17 C14.33 18.65 14.66 20.3 15 22 C13.35 22.66 11.7 23.32 10 24 C10.33 24.66 10.66 25.32 11 26 C13.32156597 26.40729228 15.6568787 26.74438677 18 27 C16 29 16 29 12.3046875 29.1953125 C10.82798332 29.1838709 9.35138199 29.15789907 7.875 29.125 C5.27625 29.08375 2.6775 29.0425 0 29 C0 19.43 0 9.86 0 0 Z " fill="#6466AD" transform="translate(473,133)"/>
<path d="M0 0 C11.22 0 22.44 0 34 0 C34 6.27 34 12.54 34 19 C22.78 19 11.56 19 0 19 C0 12.73 0 6.46 0 0 Z M1 1 C1 6.61 1 12.22 1 18 C10.24 18 19.48 18 29 18 C31.74278135 12.04057409 31.74278135 12.04057409 31 1 C21.1 1 11.2 1 1 1 Z " fill="#5D5FAA" transform="translate(187,102)"/>
<path d="M0 0 C0.144375 0.94875 0.28875 1.8975 0.4375 2.875 C0.82935399 5.8934494 0.82935399 5.8934494 2 8 C1.26711523 10.23601706 0.44009385 12.44171775 -0.4375 14.625 C-0.91058594 15.81351563 -1.38367188 17.00203125 -1.87109375 18.2265625 C-2.24363281 19.14179688 -2.61617188 20.05703125 -3 21 C-3.33 21 -3.66 21 -4 21 C-3.67 17.04 -3.34 13.08 -3 9 C-5.31 9 -7.62 9 -10 9 C-10 15.93 -10 22.86 -10 30 C-10.33 30 -10.66 30 -11 30 C-11 22.74 -11 15.48 -11 8 C-8.36 8 -5.72 8 -3 8 C-3 6.02 -3 4.04 -3 2 C-9.93 2 -16.86 2 -24 2 C-24 3.98 -24 5.96 -24 8 C-21.69 8 -19.38 8 -17 8 C-17 15.26 -17 22.52 -17 30 C-17.33 30 -17.66 30 -18 30 C-18 23.07 -18 16.14 -18 9 C-20.31 9 -22.62 9 -25 9 C-25 6.36 -25 3.72 -25 1 C-21.20836402 0.8326303 -17.4166864 0.66622322 -13.625 0.5 C-12.54476563 0.45230469 -11.46453125 0.40460938 -10.3515625 0.35546875 C-9.3203125 0.31035156 -8.2890625 0.26523438 -7.2265625 0.21875 C-6.27346191 0.17685547 -5.32036133 0.13496094 -4.33837891 0.09179688 C-2.89304218 0.03505783 -1.44644999 0 0 0 Z " fill="#BEBEDA" transform="translate(448,132)"/>
<path d="M0 0 C0.33 0 0.66 0 1 0 C1.495 10.395 1.495 10.395 2 21 C-17.69071103 21.0774082 -37.37489737 20.79866282 -57.06335449 20.53643799 C-61.6900098 20.47511493 -66.31668543 20.41536576 -70.94335938 20.35546875 C-79.96225969 20.23848564 -88.98113679 20.11980785 -98 20 C-98 19.67 -98 19.34 -98 19 C-65.66 19 -33.32 19 0 19 C0 12.73 0 6.46 0 0 Z " fill="#F1C3CA" transform="translate(175,129)"/>
<path d="M0 0 C42.57 0 85.14 0 129 0 C129 0.33 129 0.66 129 1 C87.42 1 45.84 1 3 1 C3 1.66 3 2.32 3 3 C1.68 3 0.36 3 -1 3 C-0.67 2.01 -0.34 1.02 0 0 Z " fill="#F4F4F4" transform="translate(14,73)"/>
<path d="M0 0 C0.33 0 0.66 0 1 0 C1 2.97 1 5.94 1 9 C-3.89241128 12.1950441 -6.97708824 13.78074782 -13 13 C-15.87305972 11.59539303 -17.74510999 10.25489001 -20 8 C-20 7.01 -20 6.02 -20 5 C-18.02 4.34 -16.04 3.68 -14 3 C-13.67 3.66 -13.34 4.32 -13 5 C-10.67843403 5.40729228 -8.3431213 5.74438677 -6 6 C-5.67 5.01 -5.34 4.02 -5 3 C-5 4.32 -5 5.64 -5 7 C-3.35 7 -1.7 7 0 7 C0 4.69 0 2.38 0 0 Z " fill="#5E60AB" transform="translate(662,150)"/>
<path d="M0 0 C1.65 0 3.3 0 5 0 C5.33 8.25 5.66 16.5 6 25 C4.02 25 2.04 25 0 25 C0 16.75 0 8.5 0 0 Z " fill="#303393" transform="translate(499,134)"/>
<path d="M0 0 C6.93 0 13.86 0 21 0 C21 0.99 21 1.98 21 3 C20.34 3 19.68 3 19 3 C18.67 4.32 18.34 5.64 18 7 C18 5.02 18 3.04 18 1 C12.39 1 6.78 1 1 1 C1 9.91 1 18.82 1 28 C6.61 28 12.22 28 18 28 C18 26.35 18 24.7 18 23 C14.37 23 10.74 23 7 23 C7 21.02 7 19.04 7 17 C10.3 17 13.6 17 17 17 C17 15.35 17 13.7 17 12 C13.7 12 10.4 12 7 12 C7 11.67 7 11.34 7 11 C10.63 11 14.26 11 18 11 C18 13.31 18 15.62 18 18 C14.7 18 11.4 18 8 18 C8 19.32 8 20.64 8 22 C11.63 22 15.26 22 19 22 C19 24.31 19 26.62 19 29 C12.73 29 6.46 29 0 29 C0 19.43 0 9.86 0 0 Z " fill="#8789BF" transform="translate(579,133)"/>
<path d="M0 0 C5.61 0 11.22 0 17 0 C17 0.33 17 0.66 17 1 C11.72 1 6.44 1 1 1 C1.33 7.93 1.66 14.86 2 22 C2.66 22.33 3.32 22.66 4 23 C4.66 22.67 5.32 22.34 6 22 C7.87379605 21.92966231 9.75001102 21.9156978 11.625 21.9375 C13.12933594 21.95103516 13.12933594 21.95103516 14.6640625 21.96484375 C15.43492187 21.97644531 16.20578125 21.98804688 17 22 C17 23.65 17 25.3 17 27 C11.39 27 5.78 27 0 27 C0 18.09 0 9.18 0 0 Z " fill="#494BA0" transform="translate(580,134)"/>
<path d="M0 0 C0.66 0 1.32 0 2 0 C2.70088156 1.74468372 3.38524009 3.49601161 4.0625 5.25 C4.44535156 6.22453125 4.82820312 7.1990625 5.22265625 8.203125 C6.01113787 11.04007395 6.02437812 12.29409552 5 15 C3.02 15 1.04 15 -1 15 C-1 12.69 -1 10.38 -1 8 C-4.63 8 -8.26 8 -12 8 C-12 6.68 -12 5.36 -12 4 C-8.04 4 -4.08 4 0 4 C0 2.68 0 1.36 0 0 Z " fill="#E4E5F0" transform="translate(598,136)"/>
<path d="M0 0 C11.22 0 22.44 0 34 0 C34 6.27 34 12.54 34 19 C32.68 19 31.36 19 30 19 C30 13.06 30 7.12 30 1 C20.1 1 10.2 1 0 1 C0 0.67 0 0.34 0 0 Z " fill="#6A6CB0" transform="translate(187,129)"/>
<path d="M0 0 C3.63 0 7.26 0 11 0 C11 0.99 11 1.98 11 3 C10.67 2.67 10.34 2.34 10 2 C7.69 2 5.38 2 3 2 C2.67 14.54 2.34 27.08 2 40 C4.64 40 7.28 40 10 40 C10 40.33 10 40.66 10 41 C6.7 41 3.4 41 0 41 C0 27.47 0 13.94 0 0 Z " fill="#F14D69" transform="translate(516,69)"/>
<path d="M0 0 C1.62463842 -0.05395478 3.24978541 -0.09277195 4.875 -0.125 C5.77992188 -0.14820312 6.68484375 -0.17140625 7.6171875 -0.1953125 C10 0 10 0 12 2 C12.25 4.5 12.25 4.5 12 7 C10 9 10 9 7.6171875 9.1953125 C6.71226562 9.17210938 5.80734375 9.14890625 4.875 9.125 C3.50988281 9.09792969 3.50988281 9.09792969 2.1171875 9.0703125 C1.41851562 9.04710938 0.71984375 9.02390625 0 9 C0 6.03 0 3.06 0 0 Z " fill="#FDE8EC" transform="translate(391,78)"/>
<path d="M0 0 C3.63 0 7.26 0 11 0 C11 13.53 11 27.06 11 41 C7.7 41 4.4 41 1 41 C0.67 33.41 0.34 25.82 0 18 C0.66 18 1.32 18 2 18 C2 25.26 2 32.52 2 40 C4.64 40 7.28 40 10 40 C10 27.13 10 14.26 10 1 C3.94303233 1.69654 3.94303233 1.69654 -1 4 C-0.67 2.68 -0.34 1.36 0 0 Z " fill="#F04663" transform="translate(653,69)"/>
<path d="M0 0 C2.15419405 0.70408289 4.29829093 1.43912223 6.4375 2.1875 C7.63246094 2.59355469 8.82742188 2.99960938 10.05859375 3.41796875 C13 5 13 5 13.97265625 7.61328125 C13.98619141 8.79470703 13.98619141 8.79470703 14 10 C13 11 13 11 9.75 11.375 C6 11 6 11 3.125 8.875 C0.80177796 5.73181724 0.49513556 3.80306246 0 0 Z " fill="#FBE9EC" transform="translate(707,90)"/>
<path d="M0 0 C2.64 0 5.28 0 8 0 C8 6.93 8 13.86 8 21 C7.67 21 7.34 21 7 21 C7 14.4 7 7.8 7 1 C5.02 1 3.04 1 1 1 C1 7.93 1 14.86 1 22 C0.67 22 0.34 22 0 22 C0 20.35 0 18.7 0 17 C-1.98 17.99 -1.98 17.99 -4 19 C-4 20.65 -4 22.3 -4 24 C-4.66 23.67 -5.32 23.34 -6 23 C-6.8125 20.1875 -6.8125 20.1875 -7 17 C-5.625 15 -5.625 15 -4 13 C-3.27954633 9.84881675 -3.27954633 9.84881675 -3 7 C-2.67 7 -2.34 7 -2 7 C-2 9.64 -2 12.28 -2 15 C-1.34 15 -0.68 15 0 15 C0 10.05 0 5.1 0 0 Z " fill="#A9AACF" transform="translate(375,133)"/>
<path d="M0 0 C4.62 0 9.24 0 14 0 C14 0.33 14 0.66 14 1 C9.71 1 5.42 1 1 1 C1.33 9.58 1.66 18.16 2 27 C3.32 27 4.64 27 6 27 C6 24.69 6 22.38 6 20 C7.65 19.67 9.3 19.34 11 19 C11 19.99 11 20.98 11 22 C10.01 21.67 9.02 21.34 8 21 C8 23.64 8 26.28 8 29 C5.36 29 2.72 29 0 29 C0 19.43 0 9.86 0 0 Z " fill="#9EA0CC" transform="translate(350,133)"/>
<path d="M0 0 C1.32 0.33 2.64 0.66 4 1 C3.67 1.33 3.34 1.66 3 2 C2.84417697 3.34015221 2.74955858 4.68758903 2.68359375 6.03515625 C2.62075195 7.24848633 2.62075195 7.24848633 2.55664062 8.48632812 C2.51732422 9.33646484 2.47800781 10.18660156 2.4375 11.0625 C2.37272461 12.34350586 2.37272461 12.34350586 2.30664062 13.65039062 C2.20023298 15.76672037 2.09958269 17.88333813 2 20 C-1.07874877 21.53937439 -4.26736697 21.00296786 -7.6328125 20.87890625 C-8.38464813 20.85529526 -9.13648376 20.83168427 -9.91110229 20.80735779 C-12.31592566 20.7306938 -14.72042918 20.64668156 -17.125 20.5625 C-18.75389052 20.50928203 -20.38279672 20.45654161 -22.01171875 20.40429688 C-26.0080156 20.27507502 -30.00404092 20.13926173 -34 20 C-34 19.67 -34 19.34 -34 19 C-22.78 19 -11.56 19 0 19 C0 12.73 0 6.46 0 0 Z " fill="#CBCCE1" transform="translate(221,74)"/>
<path d="M0 0 C0.33 0 0.66 0 1 0 C1 5.61 1 11.22 1 17 C9.58 17 18.16 17 27 17 C28.44192906 8.78118773 28.44192906 8.78118773 27 4 C27.99 2.68 28.98 1.36 30 0 C30 5.94 30 11.88 30 18 C20.1 18 10.2 18 0 18 C0 12.06 0 6.12 0 0 Z " fill="#42449C" transform="translate(187,130)"/>
<path d="M0 0 C15.69899936 -0.10483203 31.33755566 -0.17415915 47 1 C47 1.66 47 2.32 47 3 C43.72918529 3.02902429 40.4584037 3.04680684 37.1875 3.0625 C36.25873047 3.07087891 35.32996094 3.07925781 34.37304688 3.08789062 C33.48037109 3.09111328 32.58769531 3.09433594 31.66796875 3.09765625 C30.43469849 3.10551147 30.43469849 3.10551147 29.17651367 3.11352539 C27 3 27 3 24 2 C21.87411656 2.13329375 21.87411656 2.13329375 19.625 2.5 C16.09395463 2.94919901 13.48135876 2.80339048 10 2 C8.6040112 2 7.20791527 2.02248809 5.8125 2.0625 C2 2 2 2 0 0 Z " fill="#EE2849" transform="translate(121,23)"/>
<path d="M0 0 C0.33 1.32 0.66 2.64 1 4 C3.31 4 5.62 4 8 4 C8.33 3.34 8.66 2.68 9 2 C9.721875 2.45375 10.44375 2.9075 11.1875 3.375 C13.90687362 5.06756718 13.90687362 5.06756718 16.75 5.9375 C19 7 19 7 19.8125 9.125 C19.874375 9.74375 19.93625 10.3625 20 11 C17.69 11 15.38 11 13 11 C12.67 10.01 12.34 9.02 12 8 C11.34 8 10.68 8 10 8 C10 7.34 10 6.68 10 6 C6.37 6 2.74 6 -1 6 C-0.67 4.02 -0.34 2.04 0 0 Z " fill="#E7E8F2" transform="translate(636,145)"/>
<path d="M0 0 C0.06058594 1.27617188 0.12117188 2.55234375 0.18359375 3.8671875 C0.26799568 5.53647016 0.35264386 7.20574037 0.4375 8.875 C0.47681641 9.71675781 0.51613281 10.55851562 0.55664062 11.42578125 C0.59853516 12.23144531 0.64042969 13.03710938 0.68359375 13.8671875 C0.72025146 14.61081543 0.75690918 15.35444336 0.79467773 16.12060547 C0.89955865 18.08864312 0.89955865 18.08864312 2 20 C-1.58482726 18.80505758 -2.45783528 17.30667782 -4.19921875 14.0390625 C-5.61670731 10.42965262 -5.50633826 7.86082922 -5 4 C-1.9 0 -1.9 0 0 0 Z " fill="#F5E0E3" transform="translate(448,80)"/>
<path d="M0 0 C0.33 1.32 0.66 2.64 1 4 C4.3 4 7.6 4 11 4 C11 6.31 11 8.62 11 11 C7.7 11 4.4 11 1 11 C1 12.65 1 14.3 1 16 C4.3 16 7.6 16 11 16 C11 17.32 11 18.64 11 20 C7.65854032 20.23312509 5.28416126 20.10501612 2.125 18.9375 C0 17 0 17 -0.3125 13.3125 C-0.209375 12.219375 -0.10625 11.12625 0 10 C3.3 10 6.6 10 10 10 C10 8.35 10 6.7 10 5 C6.7 5 3.4 5 0 5 C0 3.35 0 1.7 0 0 Z " fill="#5E60AA" transform="translate(525,140)"/>
<path d="M0 0 C3.62498334 -0.02893932 7.24993713 -0.04677792 10.875 -0.0625 C12.42380859 -0.07506836 12.42380859 -0.07506836 14.00390625 -0.08789062 C14.99003906 -0.09111328 15.97617187 -0.09433594 16.9921875 -0.09765625 C18.35899658 -0.10551147 18.35899658 -0.10551147 19.75341797 -0.11352539 C22 0 22 0 24 1 C24 10.24 24 19.48 24 29 C23.67 29 23.34 29 23 29 C21.66742597 14.40318907 21.66742597 14.40318907 23 7 C22.34 7 21.68 7 21 7 C21 5.02 21 3.04 21 1 C14.4 1 7.8 1 1 1 C1 2.98 1 4.96 1 7 C0.67 7 0.34 7 0 7 C0 4.69 0 2.38 0 0 Z " fill="#C7C8E1" transform="translate(326,133)"/>
<path d="M0 0 C4 4 4 4 4.36230469 6.01464844 C4.29946289 6.7059082 4.23662109 7.39716797 4.171875 8.109375 C4.11386719 8.86347656 4.05585937 9.61757812 3.99609375 10.39453125 C3.91488281 11.17183594 3.83367188 11.94914062 3.75 12.75 C3.68425781 13.54277344 3.61851562 14.33554688 3.55078125 15.15234375 C3.38624584 17.10326366 3.19565518 19.05195497 3 21 C2.01 21.33 1.02 21.66 0 22 C0 14.74 0 7.48 0 0 Z " fill="#EFCFD4" transform="translate(632,88)"/>
<path d="M0 0 C2.31 0 4.62 0 7 0 C7 0.33 7 0.66 7 1 C5.02 1 3.04 1 1 1 C1 9.91 1 18.82 1 28 C2.98 28 4.96 28 7 28 C7 23.38 7 18.76 7 14 C7.99 14.66 8.98 15.32 10 16 C10 16.66 10 17.32 10 18 C9.34 18 8.68 18 8 18 C8 21.63 8 25.26 8 29 C5.36 29 2.72 29 0 29 C0 19.43 0 9.86 0 0 Z " fill="#7173B4" transform="translate(551,133)"/>
<path d="M0 0 C0.99 0.33 1.98 0.66 3 1 C4.33599181 4.00598158 5.14345053 6.09147996 4.625 9.375 C4.41875 9.91125 4.2125 10.4475 4 11 C2.02 11 0.04 11 -2 11 C-2.05399736 9.54207116 -2.09279177 8.08357288 -2.125 6.625 C-2.15980469 5.40683594 -2.15980469 5.40683594 -2.1953125 4.1640625 C-2 2 -2 2 0 0 Z " fill="#F9F9FB" transform="translate(599,140)"/>
<path d="M0 0 C0.33 0 0.66 0 1 0 C1 6.6 1 13.2 1 20 C4.13270409 18.40733826 4.13270409 18.40733826 4.43237305 16.12060547 C4.45855713 15.37697754 4.48474121 14.63334961 4.51171875 13.8671875 C4.56489258 12.65869141 4.56489258 12.65869141 4.61914062 11.42578125 C4.65297852 10.16314453 4.65297852 10.16314453 4.6875 8.875 C4.72166016 8.02550781 4.75582031 7.17601562 4.79101562 6.30078125 C4.87359173 4.20098895 4.93846978 2.10051436 5 0 C5.33 0 5.66 0 6 0 C6 7.26 6 14.52 6 22 C4.02 22 2.04 22 0 22 C0 14.74 0 7.48 0 0 Z " fill="#44479D" transform="translate(431,140)"/>
<path d="M0 0 C1.79093191 -0.08086147 3.58289628 -0.13912702 5.375 -0.1875 C6.87160156 -0.23970703 6.87160156 -0.23970703 8.3984375 -0.29296875 C9.25695312 -0.19628906 10.11546875 -0.09960938 11 0 C13 3 13 3 12.625 5.1875 C12.41875 5.785625 12.2125 6.38375 12 7 C11.34 5.35 10.68 3.7 10 2 C7.36 1.67 4.72 1.34 2 1 C1.7525 1.969375 1.505 2.93875 1.25 3.9375 C-0.03854722 8.49410178 -1.99998479 12.71841403 -4 17 C-4.66 17 -5.32 17 -6 17 C-4.33846988 11.14340094 -2.52958084 5.5409866 0 0 Z " fill="#F04B66" transform="translate(272,69)"/>
<path d="M0 0 C2.97 0 5.94 0 9 0 C9 1.98 9 3.96 9 6 C6.03 6 3.06 6 0 6 C0 4.02 0 2.04 0 0 Z " fill="#D2D3E8" transform="translate(357,140)"/>
<path d="M0 0 C0.66 0.99 1.32 1.98 2 3 C4.56282742 3.72965366 4.56282742 3.72965366 7 4 C6.67 4.66 6.34 5.32 6 6 C3.78515625 6.484375 3.78515625 6.484375 1.0625 6.75 C-0.28134766 6.89695313 -0.28134766 6.89695313 -1.65234375 7.046875 C-4 7 -4 7 -6 5 C-6 4.01 -6 3.02 -6 2 C-2.25 0 -2.25 0 0 0 Z " fill="#4F51A3" transform="translate(648,153)"/>
<path d="M0 0 C1.32 0 2.64 0 4 0 C6.02903697 4.05807395 5.0467948 9.60128877 5 14 C1.04 14 -2.92 14 -7 14 C-7.33 12.02 -7.66 10.04 -8 8 C-6 10 -6 10 -6 13 C-2.7 13 0.6 13 4 13 C3.566875 11.84371094 3.566875 11.84371094 3.125 10.6640625 C2.75375 9.66117188 2.3825 8.65828125 2 7.625 C1.62875 6.62726563 1.2575 5.62953125 0.875 4.6015625 C0 2 0 2 0 0 Z " fill="#F3C1C9" transform="translate(293,96)"/>
<path d="M0 0 C3 1 3 1 5 4 C5.125 6.6875 5.125 6.6875 5 9 C2.69 9 0.38 9 -2 9 C-1.125 2.25 -1.125 2.25 0 0 Z " fill="#F58093" transform="translate(491,85)"/>
<path d="M0 0 C2.31 0 4.62 0 7 0 C7.38218767 1.65614657 7.71395102 3.32457024 8 5 C7 6 7 6 3.4375 6.0625 C2.303125 6.041875 1.16875 6.02125 0 6 C0 4.02 0 2.04 0 0 Z " fill="#D3D4E5" transform="translate(480,150)"/>
<path d="M0 0 C10.23 0 20.46 0 31 0 C31 0.33 31 0.66 31 1 C21.43 1 11.86 1 2 1 C2 4.3 2 7.6 2 11 C1.67 11 1.34 11 1 11 C1 8.36 1 5.72 1 3 C0.34 3 -0.32 3 -1 3 C-0.67 2.01 -0.34 1.02 0 0 Z " fill="#EDEDF1" transform="translate(185,73)"/>
<path d="M0 0 C3.3 0.33 6.6 0.66 10 1 C9.67 2.98 9.34 4.96 9 7 C6.03 6.01 3.06 5.02 0 4 C0 2.68 0 1.36 0 0 Z " fill="#D4D5E8" transform="translate(410,140)"/>
<path d="M0 0 C0.33 0.66 0.66 1.32 1 2 C0.34 2 -0.32 2 -1 2 C-0.88140625 2.68707031 -0.7628125 3.37414063 -0.640625 4.08203125 C-0.51171875 4.98308594 -0.3828125 5.88414063 -0.25 6.8125 C-0.11078125 7.70582031 0.0284375 8.59914063 0.171875 9.51953125 C0.11515625 10.33808594 0.0584375 11.15664063 0 12 C-1.32 12.99 -2.64 13.98 -4 15 C-3.34 11.7 -2.68 8.4 -2 5 C-3.32 4.67 -4.64 4.34 -6 4 C-6.33 3.01 -6.66 2.02 -7 1 C-3.535 0.505 -3.535 0.505 0 0 Z " fill="#D2D2E3" transform="translate(37,38)"/>
<path d="M0 0 C3.3 0 6.6 0 10 0 C10 1.32 10 2.64 10 4 C6.7 4 3.4 4 0 4 C0 2.68 0 1.36 0 0 Z " fill="#EEEFF4" transform="translate(587,151)"/>
<path d="M0 0 C1.27351308 2.54702616 0.80191925 3.4282945 0.0625 6.125 C-0.13214844 6.84945312 -0.32679688 7.57390625 -0.52734375 8.3203125 C-0.68332031 8.87460938 -0.83929688 9.42890625 -1 10 C1.64 10 4.28 10 7 10 C7 10.99 7 11.98 7 13 C3.37 13 -0.26 13 -4 13 C-2.125 3.89285714 -2.125 3.89285714 0 0 Z " fill="#F1647C" transform="translate(261,97)"/>
<path d="M0 0 C0.33 0 0.66 0 1 0 C1 9.9 1 19.8 1 30 C1.99 30.33 2.98 30.66 4 31 C2.02 31.99 2.02 31.99 0 33 C0 22.11 0 11.22 0 0 Z " fill="#6A6CB1" transform="translate(161,176)"/>
<path d="M0 0 C1.67542976 0.28604898 3.34385343 0.61781233 5 1 C4.67 1.66 4.34 2.32 4 3 C3.01 2.67 2.02 2.34 1 2 C1 4.64 1 7.28 1 10 C-1.31 10 -3.62 10 -6 10 C-5.67 8.68 -5.34 7.36 -5 6 C-5 6.66 -5 7.32 -5 8 C-3.68 8 -2.36 8 -1 8 C-1.020625 6.865625 -1.04125 5.73125 -1.0625 4.5625 C-1 1 -1 1 0 0 Z " fill="#7273B5" transform="translate(357,152)"/>
<path d="M0 0 C2.31 0.66 4.62 1.32 7 2 C7 3.32 7 4.64 7 6 C5.02 6 3.04 6 1 6 C0.67 5.01 0.34 4.02 0 3 C-0.66 2.67 -1.32 2.34 -2 2 C-1.34 2 -0.68 2 0 2 C0 1.34 0 0.68 0 0 Z " fill="#D5D5E5" transform="translate(408,150)"/>
<path d="M0 0 C0.33 0 0.66 0 1 0 C1 4.95 1 9.9 1 15 C1.99 15 2.98 15 4 15 C4 15.99 4 16.98 4 18 C3.01 18 2.02 18 1 18 C1 21.63 1 25.26 1 29 C0.67 29 0.34 29 0 29 C0 19.43 0 9.86 0 0 Z " fill="#EFEFF4" transform="translate(575,133)"/>
<path d="M0 0 C0.33 1.32 0.66 2.64 1 4 C3.31 4 5.62 4 8 4 C8.33 3.34 8.66 2.68 9 2 C11.475 3.98 11.475 3.98 14 6 C9.05 6 4.1 6 -1 6 C-0.67 4.02 -0.34 2.04 0 0 Z " fill="#DEDEE7" transform="translate(636,145)"/>
<path d="M0 0 C0 4.29 0 8.58 0 13 C-0.99 12.34 -1.98 11.68 -3 11 C-3.29296875 8.6171875 -3.29296875 8.6171875 -3.1875 5.875 C-3.16042969 4.96492188 -3.13335937 4.05484375 -3.10546875 3.1171875 C-3.07066406 2.41851562 -3.03585937 1.71984375 -3 1 C-1 0 -1 0 0 0 Z " fill="#F1ECED" transform="translate(447,84)"/>
<path d="M0 0 C12.66970387 -0.3690205 12.66970387 -0.3690205 18 2 C14.09519751 3.35862973 10.2898224 2.89469712 6.25 2.5625 C5.55261719 2.51029297 4.85523438 2.45808594 4.13671875 2.40429688 C2.42403797 2.27525928 0.71194934 2.13840386 -1 2 C-0.67 1.34 -0.34 0.68 0 0 Z " fill="#F0506B" transform="translate(446,68)"/>
<path d="M0 0 C2.97 0.33 5.94 0.66 9 1 C8.67 2.32 8.34 3.64 8 5 C5.36 5 2.72 5 0 5 C0 3.35 0 1.7 0 0 Z " fill="#5D5FAA" transform="translate(624,157)"/>
<path d="M0 0 C0.33 0 0.66 0 1 0 C1 2.97 1 5.94 1 9 C-3.97504047 12.24900602 -6.88225104 13.49940808 -13 13 C-13 12.67 -13 12.34 -13 12 C-12.071875 11.896875 -11.14375 11.79375 -10.1875 11.6875 C-6.79667432 10.95614544 -6.26653158 10.36955574 -4 8 C-2.68 8 -1.36 8 0 8 C0 5.36 0 2.72 0 0 Z " fill="#7B7DBA" transform="translate(662,150)"/>
<path d="M0 0 C0.33 0.66 0.66 1.32 1 2 C2.88764903 2.68472665 2.88764903 2.68472665 5.0625 3.125 C5.79597656 3.29257813 6.52945313 3.46015625 7.28515625 3.6328125 C7.85105469 3.75398437 8.41695312 3.87515625 9 4 C9 4.99 9 5.98 9 7 C6.36 7 3.72 7 1 7 C0.67 4.69 0.34 2.38 0 0 Z " fill="#6164AD" transform="translate(606,155)"/>
<path d="M0 0 C0.66 0.33 1.32 0.66 2 1 C2.625 4.0625 2.625 4.0625 3 7 C2.01 7 1.02 7 0 7 C-0.99 9.97 -1.98 12.94 -3 16 C-4.05554693 11.7778123 -3.8031082 10.36022037 -2.625 6.3125 C-2.34914063 5.33925781 -2.07328125 4.36601562 -1.7890625 3.36328125 C-1 1 -1 1 0 0 Z " fill="#BABBD9" transform="translate(619,146)"/>
<path d="M0 0 C0.33 0.66 0.66 1.32 1 2 C1.66 2 2.32 2 3 2 C3 8.27 3 14.54 3 21 C2.67 21 2.34 21 2 21 C1.67 16.05 1.34 11.1 1 6 C0.34 6 -0.32 6 -1 6 C-1.042721 4.33388095 -1.04063832 2.66617115 -1 1 C-0.67 0.67 -0.34 0.34 0 0 Z " fill="#E8E8F0" transform="translate(184,45)"/>
<path d="M0 0 C2.64 0 5.28 0 8 0 C8 1.32 8 2.64 8 4 C5.36 4 2.72 4 0 4 C0 2.68 0 1.36 0 0 Z " fill="#CFD0E3" transform="translate(479,140)"/>
<path d="M0 0 C6.93 0 13.86 0 21 0 C21 0.99 21 1.98 21 3 C20.34 3 19.68 3 19 3 C18.67 4.32 18.34 5.64 18 7 C18 5.02 18 3.04 18 1 C12.06 1 6.12 1 0 1 C0 0.67 0 0.34 0 0 Z " fill="#B3B4D7" transform="translate(579,133)"/>
<path d="M0 0 C0.99 0.33 1.98 0.66 3 1 C3.33 3.64 3.66 6.28 4 9 C2.35 9 0.7 9 -1 9 C-0.67 6.03 -0.34 3.06 0 0 Z " fill="#FCD7DD" transform="translate(276,84)"/>
<path d="M0 0 C5.61 0.33 11.22 0.66 17 1 C17 1.66 17 2.32 17 3 C10.90218999 3.22084624 5.78357065 3.01167675 0 1 C0 0.67 0 0.34 0 0 Z " fill="#696BB0" transform="translate(203,48)"/>
<path d="M0 0 C0.33 0 0.66 0 1 0 C1 3.3 1 6.6 1 10 C-1.52053595 11.26026798 -2.8542098 10.91874445 -5.625 10.5625 C-6.44226563 10.46066406 -7.25953125 10.35882813 -8.1015625 10.25390625 C-8.72804688 10.17011719 -9.35453125 10.08632812 -10 10 C-10 9.67 -10 9.34 -10 9 C-7.36 8.67 -4.72 8.34 -2 8 C-1.34 5.36 -0.68 2.72 0 0 Z " fill="#D7D7E6" transform="translate(634,153)"/>
<path d="M0 0 C0.66 0 1.32 0 2 0 C2 5.94 2 11.88 2 18 C1.67 18 1.34 18 1 18 C0.67 13.71 0.34 9.42 0 5 C-0.66 5 -1.32 5 -2 5 C-1.34 3.35 -0.68 1.7 0 0 Z " fill="#FDE1E5" transform="translate(330,90)"/>
<path d="M0 0 C0.93423645 3.01031744 1.04449911 3.86650268 0 7 C1.98 6.67 3.96 6.34 6 6 C5.67 6.99 5.34 7.98 5 9 C2.69 9 0.38 9 -2 9 C-1.125 2.25 -1.125 2.25 0 0 Z " fill="#7375B5" transform="translate(444,153)"/>
<path d="M0 0 C1.5 1.25 1.5 1.25 3 3 C3 4.32 3 5.64 3 7 C1.35 7 -0.3 7 -2 7 C-2 5.35 -2 3.7 -2 2 C-1.34 2 -0.68 2 0 2 C0 1.34 0 0.68 0 0 Z " fill="#9A9BC7" transform="translate(455,145)"/>
<path d="M0 0 C-1.01869464 2.19411153 -1.97564206 3.97174479 -3.5625 5.8125 C-5.50945189 8.77525287 -5.66490689 11.5150317 -6 15 C-6.33 15 -6.66 15 -7 15 C-7.48279288 10.17207121 -7.82060585 6.34532299 -4.625 2.4375 C-2 0 -2 0 0 0 Z " fill="#EF4764" transform="translate(709,70)"/>
<path d="M0 0 C1.65 0 3.3 0 5 0 C5.33 0.99 5.66 1.98 6 3 C6.66 3.33 7.32 3.66 8 4 C5.6875 4.625 5.6875 4.625 3 5 C2.01 4.34 1.02 3.68 0 3 C0 2.01 0 1.02 0 0 Z " fill="#DBDCEC" transform="translate(650,140)"/>
<path d="M0 0 C1.9451 2.91765 2.45276317 4.62537285 3 8 C1.35 8 -0.3 8 -2 8 C-1.125 1.125 -1.125 1.125 0 0 Z " fill="#D0D1E3" transform="translate(40,30)"/>
<path d="M0 0 C0.66 0 1.32 0 2 0 C2.66 0.66 3.32 1.32 4 2 C6.57061311 2.64767793 6.57061311 2.64767793 9 3 C9 3.99 9 4.98 9 6 C7.02 6 5.04 6 3 6 C2.01 4.02 1.02 2.04 0 0 Z " fill="#5D60AA" transform="translate(565,156)"/>
<path d="M0 0 C3.63 0 7.26 0 11 0 C11 2.31 11 4.62 11 7 C10.67 7 10.34 7 10 7 C10 5.02 10 3.04 10 1 C5.94393835 1.46800711 2.53411321 1.87953208 -1 4 C-0.67 2.68 -0.34 1.36 0 0 Z " fill="#EF3F5D" transform="translate(653,69)"/>
<path d="M0 0 C2.31 0.66 4.62 1.32 7 2 C6.67 2.66 6.34 3.32 6 4 C3.93359375 4.4140625 3.93359375 4.4140625 1.4375 4.625 C0.61121094 4.69976562 -0.21507812 4.77453125 -1.06640625 4.8515625 C-2.02353516 4.92503906 -2.02353516 4.92503906 -3 5 C-2.01 3.35 -1.02 1.7 0 0 Z " fill="#42459C" transform="translate(648,155)"/>
<path d="M0 0 C0.33 1.32 0.66 2.64 1 4 C2.32 4 3.64 4 5 4 C5.33 3.01 5.66 2.02 6 1 C6.33 2.98 6.66 4.96 7 7 C4.69 7 2.38 7 0 7 C0 4.69 0 2.38 0 0 Z " fill="#DFDFE8" transform="translate(597,144)"/>
<path d="M0 0 C0.66 0.33 1.32 0.66 2 1 C2.40729228 3.32156597 2.74438677 5.6568787 3 8 C1.35 8 -0.3 8 -2 8 C-1.34 5.36 -0.68 2.72 0 0 Z " fill="#FDEBEE" transform="translate(492,85)"/>
<path d="M0 0 C0 2.14674333 -0.07057871 4.29394306 -0.1875 6.4375 C0.00870789 10.16544983 0.47294203 11.36764795 3 14 C1.68 14 0.36 14 -1 14 C-1.93385816 11.19842552 -2.16354595 9.34552197 -2.1875 6.4375 C-2.20167969 5.65246094 -2.21585937 4.86742187 -2.23046875 4.05859375 C-2 2 -2 2 0 0 Z " fill="#AEAFD3" transform="translate(404,136)"/>
<path d="M0 0 C0 0.66 0 1.32 0 2 C-3.96 2 -7.92 2 -12 2 C-7.57703297 -0.94864468 -5.15145854 -1.28786464 0 0 Z " fill="#41449C" transform="translate(220,172)"/>
<path d="M0 0 C0.99 0 1.98 0 3 0 C3 2.64 3 5.28 3 8 C2.67 7.34 2.34 6.68 2 6 C1.34 6 0.68 6 0 6 C-0.66 4.68 -1.32 3.36 -2 2 C-1.34 2 -0.68 2 0 2 C0 1.34 0 0.68 0 0 Z " fill="#E4E4EC" transform="translate(371,134)"/>
<path d="M0 0 C1.485 0.99 1.485 0.99 3 2 C3 2.66 3 3.32 3 4 C2.34 4 1.68 4 1 4 C1 7.63 1 11.26 1 15 C0.67 15 0.34 15 0 15 C0 10.05 0 5.1 0 0 Z " fill="#B8B9D2" transform="translate(558,147)"/>
<path d="M0 0 C0.33 0 0.66 0 1 0 C1.33 3.63 1.66 7.26 2 11 C0 10 0 10 -1.1875 7.6875 C-2.04068651 4.86542154 -2.060045 3.69829637 -1 1 C-0.67 0.67 -0.34 0.34 0 0 Z " fill="#EFBEC6" transform="translate(409,91)"/>
<path d="M0 0 C0.33 0.66 0.66 1.32 1 2 C0.01 3.485 0.01 3.485 -1 5 C-1.66 5 -2.32 5 -3 5 C-3 7.31 -3 9.62 -3 12 C-3.33 12 -3.66 12 -4 12 C-4.49230769 4.61538462 -4.49230769 4.61538462 -2 1.5 C-1.34 1.005 -0.68 0.51 0 0 Z " fill="#F4C1C9" transform="translate(447,80)"/>
<path d="M0 0 C0.66 0.33 1.32 0.66 2 1 C1.01 2.485 1.01 2.485 0 4 C-0.24055468 6.05709596 -0.24055468 6.05709596 -0.125 8.1875 C-0.08375 9.445625 -0.0425 10.70375 0 12 C-0.99 11.67 -1.98 11.34 -3 11 C-2.88590407 9.54077307 -2.75834456 8.08259402 -2.625 6.625 C-2.55539063 5.81289063 -2.48578125 5.00078125 -2.4140625 4.1640625 C-2 2 -2 2 0 0 Z " fill="#7779B8" transform="translate(48,41)"/>
<path d="M0 0 C1.32 0.33 2.64 0.66 4 1 C1.36 2.98 -1.28 4.96 -4 7 C-3.67 5.68 -3.34 4.36 -3 3 C-2.34 3 -1.68 3 -1 3 C-0.67 2.01 -0.34 1.02 0 0 Z " fill="#5A5DA9" transform="translate(174,195)"/>
<path d="M0 0 C0.99 0 1.98 0 3 0 C2.01 3.3 1.02 6.6 0 10 C-0.33 10 -0.66 10 -1 10 C-1.02689216 8.52093108 -1.04634621 7.04172517 -1.0625 5.5625 C-1.07410156 4.73878906 -1.08570313 3.91507812 -1.09765625 3.06640625 C-1 1 -1 1 0 0 Z " fill="#F1E0E3" transform="translate(259,95)"/>
<path d="M0 0 C3.63 0 7.26 0 11 0 C11 0.33 11 0.66 11 1 C9.7625 1.12375 8.525 1.2475 7.25 1.375 C4.1237803 1.75746305 1.71120763 2.30549523 -1 4 C-0.67 2.68 -0.34 1.36 0 0 Z " fill="#EF3D5B" transform="translate(487,69)"/>
<path d="M0 0 C2.97 0 5.94 0 9 0 C9 1.65 9 3.3 9 5 C4.545 3.02 4.545 3.02 0 1 C0 0.67 0 0.34 0 0 Z " fill="#F5D5DA" transform="translate(401,68)"/>
<path d="M0 0 C0.99 0.33 1.98 0.66 3 1 C3.99 0.67 4.98 0.34 6 0 C6.99 0.66 7.98 1.32 9 2 C8 3 8 3 6.15234375 3.09765625 C4.1015625 3.06510417 2.05078125 3.03255208 0 3 C0 2.01 0 1.02 0 0 Z " fill="#3F429B" transform="translate(581,156)"/>
<path d="M0 0 C1.98 0 3.96 0 6 0 C5.67 1.98 5.34 3.96 5 6 C3.68 5.34 2.36 4.68 1 4 C1.33 3.67 1.66 3.34 2 3 C1.34 2.67 0.68 2.34 0 2 C0 1.34 0 0.68 0 0 Z " fill="#CDCDE5" transform="translate(414,141)"/>
<path d="M0 0 C2 2 2 2 2.125 4.625 C2.08375 5.40875 2.0425 6.1925 2 7 C1.01 7.495 1.01 7.495 0 8 C-0.38063221 5.6739143 -0.71269945 3.33944736 -1 1 C-0.67 0.67 -0.34 0.34 0 0 Z " fill="#F0F0F0" transform="translate(184,100)"/>
<path d="M0 0 C1.65 0 3.3 0 5 0 C5.33 0.99 5.66 1.98 6 3 C4.02 3 2.04 3 0 3 C0 2.01 0 1.02 0 0 Z " fill="#ECECF4" transform="translate(410,152)"/>
</svg>
